<svg width="496" height="128" viewBox="0 0 496 128" fill="none" xmlns="http://www.w3.org/2000/svg">
<path d="M289.853 20.0585L289.86 20.0589H289.866C294.06 20.1866 297.949 20.7153 300.993 23.7082C301.678 24.3816 302.568 25.407 303.233 26.7331L303.237 26.7401C304.627 29.5149 304.453 32.9783 304.514 35.9813C304.533 36.9357 304.549 38.029 304.562 39.2802C304.918 38.8023 305.266 38.3582 305.595 37.9646C307.251 35.9855 310.036 33.328 312.106 31.7486C319.987 25.7344 329.526 22.7372 339.427 23.0069C348.756 23.2611 359.021 26.4992 364.846 34.2635C365.889 35.6528 366.706 37.1744 367.08 38.8807C367.754 42.206 366.633 45.0233 365.72 46.7526C365.037 48.0464 363.964 49.3551 363.277 50.1585C362.432 51.1478 361.423 52.2282 360.416 53.2012C358.659 54.8972 356.704 56.6785 354.414 57.6267C354.04 57.7812 352.81 58.2823 351.184 58.2827C349.578 58.2832 348.247 57.7791 348.04 57.7059C344.138 56.3258 341.744 53.7941 337.485 53.9712C335.093 54.0707 333.093 54.9183 331.419 56.7562C329.632 58.7171 328.344 61.2525 328.024 63.9006C327.401 69.0478 329.821 75.1303 335.197 76.5187C340.472 77.881 343.855 74.6649 348.544 72.9599C349.615 72.5705 351.907 71.8337 354.572 72.4642C354.795 72.5168 355.006 72.5771 355.205 72.6411C355.327 70.7663 355.597 68.6428 355.922 67.0673C356.923 62.2092 358.95 57.7008 361.918 53.7324C364.831 49.8374 368.96 46.4602 373.311 44.2875C378.808 41.5428 384.695 40.4131 390.812 40.7009C396.099 40.9496 401.237 42.361 405.88 44.9166C406.681 45.3574 407.542 45.9236 408.411 46.5579C408.755 46.0438 409.169 45.516 409.668 45.0062C413.015 41.5861 417.305 41.6656 421.792 41.6656C428.015 41.6656 434.021 42.6287 436.543 48.992C436.63 48.7577 436.936 47.974 437.394 47.2445C438.566 45.4269 440.262 43.9002 442.207 42.9538C444.925 41.632 448.268 41.6656 451.207 41.6656C455.38 41.6656 459.552 41.9192 462.902 44.6975C464 45.6075 464.921 46.7074 465.568 47.9801C465.808 48.4714 465.966 48.9153 466.011 49.0419C466.183 48.5881 466.356 48.1691 466.521 47.8372C466.97 46.9502 467.509 46.1134 468.147 45.3505C468.517 44.9075 469.688 43.5277 471.555 42.6748C474.265 41.4365 477.735 41.6656 480.604 41.6656C485.58 41.6656 491.113 41.8317 494.273 46.2909C495.692 48.2928 495.988 50.3635 496 51.7867C496.03 55.4139 494.367 59.3215 493.303 62.6661C489.382 74.9873 486.112 87.7462 481.052 99.6652C479.797 102.64 477.115 104.929 474.095 105.986C471.638 106.847 468.81 106.91 466.231 106.919C463.024 106.931 460.254 106.847 457.212 105.356C454.497 104.025 452.117 101.99 451.08 99.0787C451.069 99.0495 451.059 99.0196 451.049 98.9898C450.636 99.9027 450.144 100.733 449.667 101.421C449.132 102.194 448.211 103.383 446.925 104.346C443.85 106.649 440.163 106.775 436.479 106.866C430.232 107.02 423.95 105.935 420.944 99.7158C419.685 97.1105 419.022 94.2598 418.146 91.5135C416.925 93.656 414.834 96.2486 413.16 97.9184C406.71 104.351 397.854 107.514 388.849 107.497C379.723 107.479 371.346 104.309 364.819 97.8284C359.433 103.098 352.084 106.074 344.733 107.252C335.764 108.689 325.989 107.19 317.885 103.16C315.669 102.058 312.696 100.215 310.732 98.6857C310.643 99.0217 310.528 99.3969 310.376 99.7791C307.995 105.789 301.263 107.323 295.556 107.331H295.545C291.255 107.331 286.951 106.788 283.087 104.816L283.087 104.816C282.09 104.307 281.189 103.615 280.562 103.092C280.27 103.389 280.004 103.629 279.79 103.811C276.455 106.661 272.263 107.325 267.94 107.331H267.929C262.485 107.331 256.751 106.445 252.514 102.722C252.385 102.608 252.255 102.49 252.123 102.37C251.839 102.772 251.514 103.164 251.142 103.539L251.142 103.539C251.14 103.542 251.137 103.544 251.134 103.547C251.131 103.55 251.128 103.554 251.124 103.557L251.124 103.557C247.988 106.705 243.396 106.655 239.269 106.837H239.266C235.643 106.995 231.739 107.392 228.415 105.621C224.873 107.146 221.039 107.89 217.18 107.87C210.401 107.839 203.936 105.213 199.33 100.137C198.247 100.967 196.829 101.962 195.837 102.56C186.784 108.016 174.841 109.115 164.699 106.98C149.508 103.791 137.838 92.3471 133.588 77.5894L133.588 77.5878C132.482 73.7429 132.011 69.7946 132 65.8C131.991 52.2996 138.473 38.957 149.498 31.0512C157.325 25.4238 167.456 22.6148 177.05 22.8079H177.059C185.111 22.9799 205.381 28.0742 205.58 40.5424C205.58 40.5485 205.581 40.5546 205.581 40.5606C205.581 40.5644 205.581 40.5684 205.581 40.5722C205.608 42.535 204.994 44.2211 204.654 45.0599C204.291 45.9541 203.831 46.8487 203.311 47.6923C204.827 46.3765 207.077 44.8949 208.914 44.0843C214.241 41.7841 220.063 40.6573 225.859 40.811L225.859 40.8114C231.274 40.9539 237.486 42.7013 242.139 45.6429L242.139 45.6422C243.187 46.3032 244.404 47.2565 245.474 48.2239C245.501 44.3218 245.539 41.037 245.583 38.383C245.635 35.2487 245.305 31.6796 246.08 28.5699C246.773 25.8967 248.544 23.5578 250.857 22.0746L250.858 22.0738C252.843 20.8013 254.596 20.54 255.897 20.3425C259.136 19.8507 262.828 19.9144 266.109 20.3688C269.024 20.7724 271.273 21.6407 273.376 23.7082C273.855 24.1789 274.434 24.8216 274.967 25.6188C275.304 25.0818 275.648 24.6377 275.945 24.2908C276.703 23.4059 277.583 22.6483 278.478 22.0746L278.478 22.0742C281.748 19.9777 286.12 19.9758 289.853 20.0585Z" fill="white"/>
<path d="M480.487 49.6001C484.272 49.6001 485.948 49.7573 486.822 50.1956C487.706 50.6387 488.011 51.0691 488.017 51.883C488.022 52.4824 486.97 56.2825 485.686 60.3196C481.773 72.6175 478.377 85.3166 473.412 97.2423C473.153 97.8654 472.086 98.4483 471.346 98.7075C470.601 98.9684 468.214 99.1914 466.037 99.1995C462.885 99.2112 461.754 99.0548 460.494 98.4372C456.422 96.4411 455.04 87.9106 454.421 85.7288C453.802 83.5469 450.945 71.9204 450.945 71.9204C450.945 71.9204 448.696 81.4837 447.453 85.9273C446.21 90.3709 445.123 95.8245 441.957 98.1953C440.992 98.9185 440.188 99.0449 436.019 99.1479C431.993 99.2474 430.968 99.1511 429.811 98.5524C429.02 98.1427 428.136 97.2424 427.752 96.4483C427.384 95.6861 424.383 86.3044 421.085 75.6048C417.787 64.9053 414.836 55.3459 414.533 54.3643C414.23 53.3805 414.172 52.4004 414.18 52.1144C414.188 51.8325 414.441 51.1079 414.965 50.5729C415.886 49.6311 416.097 49.6001 421.477 49.6001C426.683 49.6001 427.104 49.6548 428.045 50.4934C428.909 51.2628 429.461 53.0461 431.985 63.2972C433.598 69.8476 435.955 78.5162 435.955 78.5162C435.955 78.5162 438.57 68.8184 439.95 63.992C441.777 57.6035 443.525 51.9782 443.834 51.4859C444.143 50.9936 444.855 50.3699 445.418 50.0964C446.055 49.7863 448.158 49.6001 450.992 49.6001C454.246 49.6001 455.886 49.7699 456.733 50.1956C457.387 50.5243 458.087 51.1048 458.289 51.4859C458.491 51.8671 459.476 55.2179 460.482 58.93C461.488 62.6422 463.036 68.0932 463.923 71.0391C464.809 73.985 465.756 76.7959 465.756 76.7959C465.756 76.7959 466.638 74.6915 467.446 71.6346C468.254 68.5776 469.802 63.0392 470.887 59.3271C471.971 55.6149 473.123 52.0418 473.448 51.3867C473.773 50.7317 474.335 50.0607 474.691 49.8979C475.047 49.735 477.657 49.6001 480.487 49.6001Z" fill="#F7861E"/>
<path d="M389.932 48.4297C404.265 49.11 413.802 60.4848 413.78 74.4259C413.766 83.4054 409.837 91.9922 401.695 96.3394C397.518 98.5696 393.066 99.6089 388.362 99.5998C381.283 99.5862 374.942 97.1993 369.883 92.1102C363.684 85.8739 361.526 77.1677 363.282 68.5682C365.823 56.1193 377.461 47.8378 389.932 48.4297ZM388.951 62.1982C382.948 61.8984 378.963 66.3803 377.976 72.0392C376.834 78.588 380.873 85.5949 387.773 86.2444C394.736 86.8996 399.156 80.7091 399.156 74.2234C399.156 67.8444 395.537 62.5272 388.951 62.1982Z" fill="#F7861E"/>
<path d="M333.428 31.2743C341.849 29.9431 352.557 31.2293 359.017 37.4876C360.574 38.9995 361.072 39.7633 361.084 40.6609C361.096 41.3579 360.574 42.6455 359.817 43.7912C359.111 44.8622 357.385 46.9411 355.985 48.4057C354.07 50.4019 353.164 51.0713 352.356 51.0792C351.744 51.0871 350.218 50.4098 348.825 49.5043C336.242 41.3539 320.248 50.0527 320.29 65.2696C320.317 74.6439 326.417 82.7209 335.782 84.169C340.839 84.9552 345.877 83.3596 350.1 80.6135C351.073 79.9796 352.395 79.468 353.042 79.4719C353.917 79.4798 354.604 79.9049 355.722 81.1372C356.549 82.0467 358.099 83.9407 359.166 85.3503C360.233 86.7598 361.096 88.0406 361.096 88.7955C361.088 89.2837 360.817 90.2129 360.496 90.8626C359.503 92.867 357.044 94.3846 355.2 95.4971C350.083 98.5838 343.8 99.5998 337.939 99.5998C318.787 99.5998 303.622 85.1723 303.622 65.6633C303.609 48.2194 316.397 33.9681 333.428 31.2743Z" fill="#F7861E"/>
<path d="M284.601 28.2101C285.262 28.1091 287.451 27.9539 289.501 28.013C291.697 28.0801 293.688 28.356 294.351 28.6871C294.97 28.9906 295.719 29.7318 296.017 30.327C296.46 31.2141 296.558 36.0511 296.558 57.132C296.558 80.8303 296.613 82.9595 297.244 84.2288C297.64 85.0211 298.346 85.7227 298.91 85.8883C299.448 86.046 300.377 86.2706 300.969 86.3849C301.729 86.5347 302.219 87.0039 302.635 87.9775C302.996 88.821 303.223 90.5831 303.223 92.5107C303.223 94.245 303.047 96.1056 302.831 96.6497C302.604 97.2252 301.745 97.9586 300.773 98.4158C299.483 99.0189 298.263 99.1961 295.382 99.2C293.332 99.2 290.776 98.9674 289.697 98.6757C288.619 98.3879 287.208 97.8835 286.561 97.5524C284.289 96.3894 282.138 93.5544 281.437 91.131C280.963 89.4871 280.868 84.3584 280.872 60.2855C280.876 41.3019 281.122 31.1466 281.28 30.5241C281.472 29.7684 282.17 29.0904 282.648 28.7829C283.126 28.4754 283.432 28.3887 284.601 28.2101Z" fill="#18181B"/>
<path d="M257.063 28.2101C257.724 28.1095 259.913 27.9539 261.963 28.013C264.159 28.08 266.15 28.356 266.813 28.6871C267.432 28.9906 268.181 29.7318 268.479 30.327C268.922 31.214 269.02 36.0511 269.02 57.132C269.02 80.8307 269.075 82.9595 269.706 84.2288C270.486 85.7893 271.861 86.0818 273.43 86.3849C274.191 86.5348 274.681 87.0039 275.097 87.9775C275.457 88.821 275.685 90.5831 275.685 92.5107C275.685 95.0492 275.75 97.2328 273.234 98.4158C271.945 99.0189 270.725 99.196 267.844 99.2C263.341 99.2 259.229 98.5317 256.157 95.0256C255.126 93.8509 254.248 92.3372 253.899 91.131C253.424 89.4872 253.33 84.3586 253.334 60.2855C253.338 41.3019 253.587 31.1474 253.742 30.5241C253.93 29.7684 254.628 29.0904 255.106 28.7829C255.584 28.4754 255.89 28.3887 257.063 28.2101Z" fill="#18181B"/>
<path d="M225.6 48.8109C232.904 49.0031 240.341 52.332 243.733 59.0554C244.359 60.3044 245.159 62.7078 245.506 64.3917C246.018 66.878 246.14 70.2735 246.148 82.3769C246.159 96.1721 246.108 97.354 245.458 98.0062C244.871 98.599 243.78 98.7573 238.849 98.9747C233.69 99.2 232.804 99.1486 231.858 98.5636C231.067 98.0695 230.775 97.5753 230.775 96.7057C230.775 96.0539 230.732 95.5164 230.677 95.5079C230.621 95.5006 229.514 96.1289 228.215 96.9072C224.861 98.9062 221.097 100.02 217.186 99.9995C208.83 99.9631 201.457 93.8515 201.447 85.2426C201.42 74.1552 211.756 69.3722 221.519 69.2813C224.335 69.2536 227.526 69.3208 230.578 69.6291L230.468 68.048C230.318 65.8499 229.047 64.1906 227.163 63.1387C226.104 62.5458 224.564 62.115 223.095 61.9964C221.795 61.8897 219.845 62.0201 218.762 62.2809C217.679 62.5418 215.639 63.3008 214.232 63.9609C212.436 64.8067 211.349 65.0953 210.589 64.9294C209.892 64.7752 208.884 63.8817 207.753 62.4153C206.792 61.1662 205.906 59.6523 205.784 59.0554C205.666 58.4585 205.807 57.3912 206.099 56.6837C207.063 54.3421 209.849 52.3935 212.066 51.4146C216.262 49.562 221.036 48.6897 225.6 48.8109ZM222.701 77.7007C219.895 78.2893 216.596 80.1037 216.596 83.3612C216.611 87.1846 220.158 89.1893 223.685 88.6577C227.863 88.032 230.803 84.5993 230.783 80.3966C230.775 78.3651 230.68 78.1037 229.889 77.9377C227.648 77.4662 224.952 77.2386 222.701 77.7007Z" fill="#18181B"/>
<path d="M169.392 31.3388C177.829 30.0102 188.558 31.2939 195.03 37.5403C196.59 39.0493 197.089 39.8116 197.101 40.7076C197.113 41.4032 196.59 42.6883 195.831 43.8319C195.124 44.9009 193.395 46.9758 191.992 48.4377C190.074 50.43 189.166 51.0982 188.356 51.1061C187.743 51.1139 186.214 50.4379 184.819 49.5341C172.212 41.3992 156.187 50.0815 156.229 65.2694C156.256 74.6259 162.368 82.6875 171.75 84.1329C176.817 84.9176 181.864 83.325 186.096 80.5841C187.071 79.9515 188.395 79.4408 189.044 79.4447C189.92 79.4526 190.608 79.8769 191.728 81.1068C192.558 82.0146 194.11 83.905 195.179 85.3119C196.248 86.7187 197.113 87.9971 197.113 88.7505C197.105 89.2378 196.834 90.1653 196.511 90.8137C195.517 92.8143 193.053 94.329 191.206 95.4394C186.079 98.5203 179.784 99.5343 173.912 99.5343C154.724 99.5343 139.529 85.1343 139.529 65.6624C139.516 48.2517 152.329 34.0275 169.392 31.3388Z" fill="#18181B"/>
<path d="M47.3447 2.52952C47.0518 2.28197 46.2343 1.60076 45.1328 1.06473C43.5892 0.31357 41.8055 -0.00142285 40.0867 0.000398693C38.359 -0.0138312 36.5894 0.353071 35.0225 1.06587C33.6543 1.68599 32.4042 2.59588 31.3462 3.64271L31.3458 3.64347C30.1943 4.76435 29.2756 6.16048 28.5816 7.59157C28.101 8.58259 27.5115 10.1183 27.1545 11.182C26.7491 12.3902 26.2608 14.2159 26.0001 15.4839C25.6513 17.1805 25.372 18.9024 25.2729 20.6319C24.3166 20.8262 23.1514 21.1263 22.3027 21.4046C21.0844 21.7909 19.9143 22.3191 18.7786 22.8957C17.55 23.521 16.3641 24.244 15.2534 25.053C14.4138 25.6642 13.2472 26.6074 12.4845 27.2988C11.4295 28.2554 10.4557 29.3049 9.51897 30.3727C8.62966 31.3868 7.20746 33.143 6.26871 34.372C5.31874 35.6156 3.92293 37.5582 3.09245 38.8026C2.10361 40.2843 1.09514 41.856 0.549881 43.5524C0.248157 44.4916 0.0614199 45.451 0.00771533 46.4346C-0.036121 47.501 0.10894 48.562 0.389412 49.591C1.01826 51.8978 2.31942 53.563 3.53413 54.7118C4.63641 55.7543 5.77147 56.4772 6.97251 57.0042C6.66462 57.4016 6.36954 57.8055 6.12109 58.1835C4.36886 60.8493 3.06191 63.8114 2.24415 66.8791C1.94543 67.9996 1.61441 69.7146 1.44219 70.9096C0.952939 74.3047 1.10338 77.8238 1.86868 81.1689C2.15142 82.4046 2.65574 84.1573 3.08154 85.3094C4.00674 87.8126 5.18619 90.2635 6.69714 92.4802C8.48998 95.1105 11.2295 97.7619 13.7862 99.7003C15.8519 101.266 18.0501 102.656 20.3599 103.85C23.316 105.379 26.4075 106.578 29.5771 107.612C31.3068 108.177 33.8978 108.922 35.4985 109.308C38.0326 109.918 40.57 110.461 43.1807 110.565C47.3223 110.73 51.4678 110.81 55.6112 110.917C60.5773 111.046 65.6439 110.927 70.5905 111.438C71.0946 112.263 71.6751 113.022 72.1971 113.595C74.6332 116.269 78.029 117.758 81.3068 119.187C84.4054 120.538 87.51 121.795 90.8843 122.274C94.3607 122.768 97.9327 122.157 101.109 120.71C101.616 122.708 102.609 124.265 104.196 125.586C104.845 126.126 105.562 126.59 106.325 126.959C109.781 128.628 113.485 128.233 116.51 126.178C124.273 120.904 128.976 110.809 130.896 102.015C132.327 95.4577 132.179 88.8854 129.523 82.6398C131.912 77.7604 133.962 72.5988 135.359 67.3479C136.361 63.5781 136.261 59.4084 134.539 55.8548C134.895 54.2653 135.023 52.6249 135.023 50.9993C135.023 49.7038 134.881 47.8918 134.66 46.6202C134.48 45.5802 134.14 44.0976 133.844 43.0912C133.509 41.9509 132.911 40.4279 132.411 39.3844C131.9 38.3184 131.067 36.8849 130.34 35.8914C129.662 34.9645 128.623 33.7833 127.813 32.9923C126.965 32.1628 125.669 31.0912 124.71 30.396C123.74 29.6935 122.737 29.0182 121.683 28.4422C120.656 27.8983 119.597 27.4109 118.516 26.9805C117.338 26.5119 115.645 25.9964 114.374 25.7379C112.722 25.4018 111.045 25.2929 109.387 25.292C108.881 25.2917 108.301 25.3068 107.706 25.3355C107.716 24.1841 107.69 23.033 107.659 21.8821C107.605 20.1391 107.501 18.0557 107.359 17.0289C107.198 15.8672 106.966 14.7126 106.705 13.5687C106.062 10.7449 104.923 7.91702 102.963 5.70838L102.962 5.70876C100.464 2.88012 96.6072 1.31858 92.7959 1.95192C91.4158 2.18129 90.0312 2.72184 89.1639 3.14529C86.6303 4.38229 84.648 6.34419 83.1444 8.67117C82.6172 9.48697 81.3884 11.5756 80.4199 13.2667C79.7107 14.5052 78.6265 16.4208 77.6456 18.1661C76.3022 17.9049 74.3292 17.5768 73.0586 17.411C70.8409 17.1217 68.9154 17.0766 64.9596 17.0793C61.9232 17.0814 58.9187 17.1091 55.9169 17.5954C54.9993 15.4034 53.9985 13.2444 52.9728 11.0991C51.8889 8.83217 50.8304 6.5756 49.2918 4.56961C48.7084 3.82846 48.0711 3.14324 47.3447 2.52952Z" fill="white"/>
<path d="M43.8911 10.9265L43.8918 10.9275C46.4793 15.3429 48.5278 20.2987 50.2139 25.0878L50.2142 25.0885C50.5298 25.9876 50.7337 26.5293 50.8765 26.8361C50.8813 26.8464 50.8862 26.8561 50.8907 26.8656C51.0281 26.8283 51.2037 26.7816 51.4065 26.7288C51.8523 26.6128 52.4357 26.4649 53.0488 26.3131C54.2882 26.0076 56.3409 25.6029 57.6209 25.4135C59.7217 25.103 60.5118 25.0687 64.9635 25.0658C68.9224 25.0629 70.3672 25.116 72.0009 25.3282C73.1135 25.4732 74.9934 25.7839 76.1868 26.0192C77.3828 26.2536 79.1002 26.6692 80.0176 26.9448C80.6312 27.1292 81.208 27.3005 81.5469 27.4009C81.6372 27.276 81.7576 27.0963 81.9093 26.8537C84.7245 22.3518 86.9788 17.5225 89.8695 13.0622L89.8702 13.0615C90.9993 11.3261 93.2879 9.11275 95.5993 10.0851L95.6 10.0855C98.5149 11.3156 99.069 15.5939 99.4363 18.2683C100.086 22.9223 99.9542 27.8858 98.9088 32.5048C98.6963 33.4496 98.2771 34.8192 97.4494 36.8964L97.5661 37.0074L98.4702 36.4308C101.775 34.3211 105.409 33.2465 109.36 33.2517C112.334 33.2517 115.171 33.9879 117.772 35.405L117.773 35.4056C120.083 36.6714 122.282 38.4554 123.83 40.5651C125.434 42.7515 126.309 45.396 126.766 48.0248C127.095 49.9112 127.147 52.0371 126.786 53.9301C126.664 54.5682 126.407 55.5183 125.886 57.011C126.744 58.1941 127.64 59.4793 127.881 60.9415C128.12 62.394 127.983 64.0113 127.609 65.4119C127.414 66.1448 126.903 67.7867 126.473 69.0651V69.0657C126.04 70.3509 125.236 72.5115 124.68 73.8754C124.127 75.238 123.212 77.333 122.646 78.5372C122.109 79.68 121.392 81.0807 120.438 82.7131C120.933 83.417 121.408 84.1309 121.802 84.8962C124.776 90.6751 124.278 97.8091 122.299 103.798L122.298 103.798C121.561 106.04 120.607 108.243 119.435 110.302L119.434 110.303C117.669 113.394 115.512 116.43 112.858 118.868C111.825 119.819 110.592 120.526 109.336 119.484C108.594 118.869 108.604 117.692 109.19 116.974C110.493 115.262 112.025 113.733 113.3 111.992C115.371 109.164 117.126 106.095 118.255 102.786C119.532 99.0244 120.133 94.2385 119.193 90.3197C118.626 87.9761 117.774 85.6967 116.022 83.9607C114.69 82.6443 112.854 81.8706 110.946 81.9747L110.946 81.9743C108.707 82.1065 106.987 83.9391 106.051 85.7941C105.75 86.3947 105.33 87.5329 105.132 88.2995V88.3001C104.562 90.4959 104.52 92.8697 105.609 94.9073C105.855 95.3403 106.466 96.089 107.287 96.9191C107.937 97.5746 108.332 97.9805 108.558 98.3055C108.962 98.8844 108.996 99.6649 108.794 100.322C108.691 100.657 108.511 101.047 108.241 101.585C107.866 102.332 106.95 103.823 106.202 104.907C105.452 105.995 104.083 107.809 103.152 108.943C102.229 110.068 101.079 111.331 100.59 111.741L100.589 111.742C100.115 112.138 99.285 112.702 98.7241 113.008L98.7238 113.008C98.172 113.311 97.3131 113.703 96.7923 113.887C96.2648 114.073 95.297 114.304 94.619 114.408C93.6175 114.562 93.0685 114.561 92.0144 114.412C91.2973 114.31 90.1369 114.063 89.4209 113.858C88.6889 113.648 86.4885 112.775 84.5371 111.927C82.589 111.08 80.4791 110.07 79.8655 109.676C79.2705 109.295 78.5013 108.68 78.1391 108.283C77.788 107.899 77.3602 107.273 77.173 106.854L77.1366 106.768C76.9573 106.32 76.8061 105.569 76.7691 105.013C76.7212 104.29 76.7863 103.573 76.962 102.895C77.1081 102.333 77.4922 101.355 77.8187 100.695C78.1516 100.023 79.2445 98.2684 80.24 96.7958C81.2378 95.3199 82.5309 93.4853 83.1148 92.7161C83.6974 91.9484 84.5252 90.9853 84.9673 90.5672C85.4159 90.143 86.1689 89.6224 86.6761 89.3893L86.6774 89.3886C88.1347 88.7236 89.967 88.8112 91.4546 89.3314C91.6722 89.4074 92.2472 89.6901 92.4872 89.6046C93.1361 89.3714 93.6447 88.6682 94.0284 88.1552C94.3143 87.7729 94.9863 86.7748 95.5186 85.941C96.0433 85.1166 96.9739 83.5291 97.5821 82.4209C98.1895 81.314 99.1188 79.4972 99.6452 78.3906C100.17 77.2846 100.873 75.6525 101.204 74.772C101.37 74.332 101.52 73.8938 101.628 73.544C101.683 73.3687 101.725 73.2199 101.753 73.1066C101.811 72.8715 101.702 72.8237 101.498 72.7379C101.372 72.6848 101.207 72.6189 101.012 72.5449C100.623 72.397 100.129 72.22 99.6251 72.0502C99.1022 71.8741 98.5529 71.6642 98.0871 71.4669C97.1545 71.0718 96.318 70.561 95.8037 69.664C95.5675 69.2522 95.6091 69.1819 95.1618 69.0979C93.1559 68.7213 91.1286 68.4582 89.0901 68.3236C79.5337 67.688 69.9588 70.7836 60.4253 69.1514C59.2337 68.9485 57.5522 68.6083 56.6804 68.3927C49.1862 66.5391 42.6967 62.3064 35.3756 59.983L35.3742 59.9826C31.0522 58.6003 25.5838 58.3034 21.4362 60.3304L21.4351 60.3307C17.0219 62.475 14.4015 67.185 13.672 71.8071C12.56 78.8257 15.6302 85.8484 21.335 90.0939C28.8635 95.6962 38.3872 98.44 47.733 99.0964C49.174 99.1988 54.4316 99.273 53.8647 101.697C53.3308 103.98 48.2029 103.235 46.5424 103.111C36.7674 102.382 26.5441 99.401 18.6861 93.4603C12.1065 88.4857 8.18172 80.1836 9.36419 72.0174C10.2867 65.619 13.4246 59.9665 19.3467 56.7561C21.3822 55.6527 23.7255 55.085 26.0436 54.9935L26.1607 54.2954C26.2717 53.6337 26.6934 52.1517 27.096 50.9886C27.2528 50.5339 27.3957 50.1105 27.5113 49.7643C27.2544 49.8344 26.9588 49.9164 26.646 50.0054C23.7574 50.8266 20.9645 51.124 17.9611 51.0519C15.6026 50.9958 13.2361 50.8794 10.9646 50.2092C9.48267 49.7706 7.93427 48.4937 8.00215 46.8462C8.0134 46.5734 8.08258 46.3106 8.18263 46.0001L8.18297 45.9994C8.26695 45.74 8.50245 45.2923 8.77809 44.8148C9.91638 42.8429 11.2893 40.9885 12.6761 39.1797C14.2641 37.1048 15.9621 34.9484 17.9209 33.1799C20.5188 30.8279 23.6347 29.0384 27.1413 28.3996C28.7906 28.0993 30.4949 28.118 32.1461 28.3939C33.8408 28.6771 33.2 27.2725 33.1784 25.773C33.1502 23.7988 33.2015 21.5301 33.2982 20.6041V20.6031C33.3935 19.7092 33.6318 18.1934 33.832 17.2222C34.0331 16.2467 34.4418 14.7268 34.7437 13.8297C35.4168 11.8298 36.2642 9.34901 38.3906 8.38046L38.3913 8.38012C40.9448 7.2217 42.695 8.89459 43.8911 10.9265ZM101.912 57.8297C101.61 58.437 101.052 59.8455 100.677 60.952L100.678 60.9523C100.304 62.0597 99.8005 63.7118 99.5624 64.6139C99.3866 65.2812 99.1406 66.0338 99.1405 66.7296C99.1526 68.4666 103.08 68.8683 104.263 69.5066C105.151 69.9843 105.975 70.7112 106.241 71.7045C106.568 72.9021 106.189 73.8522 105.764 74.986C104.773 77.6274 103.562 80.1744 102.264 82.684L102.264 82.6843C100.869 85.3758 99.369 88.0153 97.5893 90.4842L97.589 90.4839C96.9624 91.3566 96.1203 92.3764 95.7018 92.7445C95.1612 93.2217 94.6075 93.5125 93.8635 93.722L93.8638 93.7223C93.1593 93.9223 92.5531 93.9941 91.9548 93.9244C91.4863 93.8711 90.689 93.6516 90.1508 93.4406L90.1497 93.4399C89.1235 93.0347 88.7302 92.988 87.9131 93.7325C87.4801 94.1284 86.7077 94.9696 86.2119 95.5912C85.7128 96.217 84.5866 97.7398 83.7123 98.9718L83.7126 98.9721C82.835 100.211 81.9467 101.568 81.7302 101.988L81.7295 101.99C81.5104 102.413 81.2243 103.159 81.1015 103.623L81.1018 103.623C80.7965 104.785 81.0734 105.642 82.1639 106.258C82.4817 106.436 84.1032 107.179 85.7848 107.911C87.4553 108.638 89.4738 109.463 90.2696 109.743H90.2703C92.9419 110.686 95.7062 110.502 97.8678 108.566C99.6252 106.992 101.021 104.93 102.356 103.019C103.058 102.007 103.744 100.984 104.341 99.9086C103.014 98.4467 102.374 97.5814 102.085 97.0311C101.099 95.1672 100.606 93.0956 100.601 90.9989C100.594 88.2591 101.374 85.3897 102.745 82.9924L102.746 82.9914C103.67 81.3852 105.148 79.8236 106.801 78.9133L106.803 78.9123C108.646 77.9058 110.686 77.5917 112.779 77.8986C114.046 78.0845 115.361 78.6616 116.469 79.2478L116.469 79.2482L117.094 79.5796C117.496 78.8938 117.971 77.9892 118.432 77.0759C118.989 75.97 119.944 73.926 120.55 72.5381L120.55 72.5374C121.158 71.1492 121.991 69.1342 122.4 68.0683C122.807 67.0059 123.316 65.4579 123.53 64.6444C124.027 62.75 123.98 61.0827 122.572 59.6116L122.571 59.6109C122.21 59.2325 121.594 58.7256 121.232 58.5028L121.231 58.5021C116.603 55.6407 104.608 49.9477 101.912 57.8297ZM81.3079 78.803C82.6057 79.6537 83.9143 82.4434 82.3128 83.6303L82.3125 83.6299C81.9869 83.8716 81.527 83.9952 81.1216 83.9952H81.1198C81.0084 83.9949 80.9885 84.0021 80.983 84.004C80.9804 84.0049 80.9448 84.017 80.8555 84.1019C80.4107 84.5253 80.0659 85.061 79.6962 85.5472C78.9505 86.5337 77.703 87.9925 76.9104 88.8012L76.9101 88.8019C75.487 90.2513 73.901 91.6025 72.1294 92.6362L72.1284 92.6369C70.8973 93.3514 69.56 93.882 68.1801 94.2505L68.1798 94.2501C66.4475 94.7164 64.5346 94.9082 62.7524 94.7025H62.7517C58.5677 94.2149 54.4416 92.0792 51.861 88.767C50.4774 86.9911 48.9523 84.8368 48.8674 82.5218C48.8674 82.1658 48.986 81.6614 49.1452 81.3483C49.5226 80.6066 50.2201 80.1892 51.067 80.1891H51.0691C51.4341 80.2051 51.7786 80.3129 52.1159 80.446C52.5229 80.6067 53.0359 80.8502 53.6869 81.1851C55.8529 82.3002 58.2088 83.0989 60.6148 83.5419C64.4448 84.2446 68.6286 84.205 72.4498 83.3709L72.7696 83.2985C74.3428 82.9237 75.9142 82.4826 77.3988 81.8436C75.1971 78.9478 78.592 77.0131 81.3079 78.803ZM55.4349 85.8738C55.2422 85.8174 55.0948 86.0461 55.228 86.1935C56.1845 87.2509 57.6176 88.86 58.5704 89.4275L58.5707 89.4279C60.4225 90.5328 62.6151 91.0996 64.7823 90.9667C67.2535 90.8142 70.4727 88.8647 72.6283 87.3135C72.7894 87.1975 72.692 86.9574 72.4933 86.9811C70.6172 87.2054 68.0334 87.6564 66.3508 87.6305C64.3689 87.5909 62.8938 87.6233 60.9372 87.2834C59.3362 87.0527 57.143 86.3735 55.4349 85.8738ZM37.9576 69.3772H37.9587C40.0807 69.5621 40.3544 71.709 40.2587 73.351C40.1068 76.035 38.5801 77.2285 37.1639 77.1189C35.6586 77.0023 34.2781 75.4134 34.8057 72.5767C35.1061 70.9621 36.0608 69.2167 37.9576 69.3772ZM51.7907 31.181L51.7903 31.1806C46.072 33.0407 41.0431 36.421 37.4131 41.1789L37.4127 41.1796C34.6599 44.7786 32.3566 48.8803 31.0286 53.1883C30.821 53.8616 30.6056 54.6716 30.5457 54.984L30.5454 54.9837C30.543 54.9967 30.541 55.0094 30.5388 55.0216C30.6203 55.031 30.7123 55.0414 30.8118 55.0538C34.9597 55.5713 39.0236 56.7517 42.864 58.3555C49.2516 61.0232 54.96 64.1679 61.9325 65.2247C70.5675 66.5396 79.0888 63.7871 87.7312 64.0035C90.0423 64.0628 92.2555 64.3827 94.5234 64.7693C95.3883 64.9168 95.2015 64.5959 95.425 63.7076C95.6494 62.8171 96.088 61.3365 96.4019 60.4089C96.7135 59.4878 97.1975 58.1435 97.4778 57.4183C97.764 56.6779 98.2809 55.6065 98.6389 55.0182C98.9986 54.4272 99.7501 53.4394 100.319 52.8043L101.133 51.8959C100.691 50.4273 100.347 49.4283 100.081 48.7276L100.081 48.7269C97.8274 42.7584 92.9454 38.0331 87.4433 34.7955C82.2403 31.7341 76.2756 30.0545 70.252 29.5146C64.1009 28.9624 57.6944 29.2642 51.7907 31.181ZM83.1975 44.718L83.2 44.719C85.9389 45.5139 85.8607 49.7647 85.8461 51.8418C85.8099 54.2744 84.8785 59.4985 81.4177 59.4985C78.354 59.4975 77.7006 55.4611 77.7123 53.325C77.7266 50.8401 78.7464 43.4493 83.1975 44.718ZM52.4571 50.2207L52.4568 50.2214C52.1265 52.2723 50.9444 56.0053 48.1791 56.0183C44.8123 56.0337 44.6774 52.1257 44.7602 49.8324C44.9449 44.7446 47.2724 42.3369 49.3517 42.4564C51.4278 42.5757 53.2563 45.2145 52.4571 50.2207ZM107.07 37.4557C104.966 37.7775 102.978 38.6913 101.219 39.8365C100.945 40.0153 100.692 40.1917 100.507 40.3305C100.444 40.3781 100.538 40.4739 100.572 40.5329C100.745 40.8359 100.995 41.241 101.28 41.6722C102.834 44.022 104.122 46.5852 104.895 49.2866C104.957 49.5007 105.019 49.717 105.055 49.937C105.835 49.8042 106.045 49.6265 107.394 49.6235C108.743 49.6204 111.278 50.1674 113.074 50.7069H113.075C113.983 50.9814 115.562 51.5171 116.591 51.9034C118.453 52.5994 120.265 53.4115 122.099 54.1738C122.411 54.3036 122.391 54.166 122.491 53.8623C122.709 53.1918 122.759 52.7429 122.745 50.9415C122.725 48.3944 122.157 45.8223 120.8 43.6152C119.033 40.7642 115.834 38.6097 112.563 37.7905C110.91 37.3762 108.771 37.1958 107.07 37.4557ZM22.5173 34.7268L22.5176 34.7272C20.6245 36.1107 19.0443 37.9753 17.6074 39.7857L17.6071 39.7864C16.8668 40.7172 15.4435 42.6628 14.4483 44.1045C13.9635 44.8068 13.4839 45.5152 13.0464 46.2469C14.9508 46.7429 16.9167 46.7975 18.8808 46.8438C22.8333 46.9207 26.5264 45.7746 30.084 44.157C31.5726 41.7628 32.552 40.3194 33.2251 39.4055C33.8884 38.5051 34.5525 37.6053 35.2325 36.7169C34.7027 35.3889 34.2281 34.0417 33.751 32.6951C29.587 31.8301 26.0138 32.1798 22.5173 34.7268ZM86.4249 28.0607C86.2542 28.3863 86.0825 28.7131 85.9348 29.0494C96.0675 33.7619 96.5436 32.6323 86.4249 28.0607ZM37.8703 29.7844C37.9397 30.9689 38.1639 32.099 38.5306 33.227C41.1573 31.3096 43.8481 29.9539 46.5621 28.2348C46.4541 27.8072 46.2726 27.3718 46.047 26.9892C43.3317 27.9775 40.6744 29.0333 37.8703 29.7844ZM88.3499 24.4685C90.5596 25.5556 92.8333 26.6988 95.2962 27.1107C95.3958 25.9779 95.3842 24.8356 95.4036 23.6996C93.3576 23.6006 91.4607 22.7892 89.5744 22.0847C89.1338 22.8626 88.7269 23.6594 88.3499 24.4685ZM37.6601 22.388C37.5489 23.4282 37.4894 24.4633 37.5274 25.5079C39.8424 24.7308 42.3281 24.1068 44.428 22.837C44.2269 22.134 43.9431 21.427 43.5963 20.7795C41.608 21.2706 39.6471 21.8835 37.6601 22.388ZM94.0505 14.4682C93.1874 15.7545 92.3125 17.0493 91.5811 18.4119C92.7364 19.0186 94.0066 19.4186 95.2584 19.7834C95.1372 17.9702 94.866 16.1194 94.0505 14.4682ZM39.8967 12.5994C39.2337 14.2426 38.6802 15.9241 38.3206 17.6562C38.3109 17.7033 38.3017 17.7484 38.2933 17.791C38.6306 17.7241 39.1643 17.5999 40.0142 17.3986C41.0751 17.1474 41.6345 17.0127 41.9305 16.9168C41.4244 15.4054 40.7497 13.953 39.8967 12.5994Z" fill="#18181B"/>
</svg>
